<svg xmlns="http://www.w3.org/2000/svg" xmlns:xlink="http://www.w3.org/1999/xlink" width="1000px" height="500px" viewBox="0 0 1000 500" zoomAndPan="disable" preserveAspectRatio="none">
    <defs>
        <linearGradient id="gradient" x1="0%" y1="0%" x2="100%" y2="0%">
            <stop offset="10%" stop-color="#5e42a6" stop-opacity="0">
                <animate attributeName="offset" values="-10%;100%" dur="5s" repeatCount="indefinite" />
            </stop>
            <stop offset="50%" stop-color="#5e42a6" stop-opacity="1">
                <animate attributeName="offset" values="0%;110%" dur="5s" repeatCount="indefinite" />
            </stop>
            <stop offset="90%" stop-color="#5e42a6" stop-opacity="0">
                <animate attributeName="offset" values="-10%;100%" dur="5s" repeatCount="indefinite" />
            </stop>
        </linearGradient>
    </defs>
    <style type="text/css"><![CDATA[
        path
        {
            stroke: url(#gradient);
            stroke-width: 1px;
            fill: none;
        }
    ]]></style>
	<path d="M 2050 0 C 1950 75, 800 375, 1050 500" />
	<path d="M 2000 0 C 1900 125, 750 375, 1000 500" />
    <path d="M 1750 0 C 1625 125, 875 375, 750 500" />
    <path d="M 1500 0 C 1375 125, 625 375, 500 500" />
    <path d="M 1150 0 C 1025 125, 275 375, 150 500" />
    <path d="M 700 0 C 575 125, -175 375, -300 500" />
    <path d="M 150 0 C 25 125, -725 375, -850 500" />
	<path d="M 50 0 C 0 125, -725 375, -850 500" />
</svg>
